<svg id="eWu1Rx5Folh1" shape-rendering="geometricPrecision" text-rendering="geometricPrecision" viewBox="0 0 100 100"
     xmlns="http://www.w3.org/2000/svg"><style><![CDATA[#eWu1Rx5Folh3 {animation: eWu1Rx5Folh3_c_o 3000ms linear infinite normal forwards}  @keyframes eWu1Rx5Folh3_c_o { 0% {opacity: 0;animation-timing-function: step-end} 30% {opacity: 1} 100% {opacity: 1}}  #eWu1Rx5Folh7 {animation: eWu1Rx5Folh7_c_o 3000ms linear infinite normal forwards}  @keyframes eWu1Rx5Folh7_c_o { 0% {opacity: 0;animation-timing-function: step-end} 40% {opacity: 1;animation-timing-function: cubic-bezier(0.550000,0.085000,0.680000,0.530000)} 100% {opacity: 0}}  #eWu1Rx5Folh9_tr {animation: eWu1Rx5Folh9_tr__tr 3000ms linear infinite normal forwards}  @keyframes eWu1Rx5Folh9_tr__tr { 0% {transform: translate(51.000046px,50.000022px) rotate(0deg);animation-timing-function: cubic-bezier(0.420000,0,0.580000,1)} 100% {transform: translate(51.000046px,50.000022px) rotate(360deg)}}]]  ></style><path clip-rule="evenodd" d="M69.793300,31.310300C77.681600,29.018500,86.141100,29.751200,93.518000,33.365100C100.895000,36.979000,106.659000,43.214200,109.683000,50.851900L110.612000,50.483800C107.497000,42.614700,101.558000,36.190500,93.957900,32.467100C86.357500,28.743700,77.641700,27.988800,69.514300,30.350000C61.386900,32.711200,54.432400,38.018800,50.010200,45.235000C45.588100,52.451300,44.016300,61.057400,45.602200,69.371000C47.188100,77.684500,51.817600,85.107700,58.585700,90.189300C65.353800,95.270900,73.773800,97.645600,82.199700,96.849100C89.896500,96.121500,97.092700,92.795600,102.622000,87.454100C102.338000,87.273000,102.081000,87.051900,101.861000,86.798900C96.502900,91.945900,89.545200,95.150300,82.105600,95.853500C73.927500,96.626600,65.755100,94.321700,59.186100,89.389600C52.617100,84.457400,48.123800,77.252600,46.584500,69.183600C45.045300,61.114600,46.570800,52.761600,50.862900,45.757500C55.154900,38.753500,61.905000,33.602100,69.793300,31.310300ZM106.320000,81.509900C106.608000,81.685600,106.869000,81.901600,107.094000,82.150300C110.921000,76.535400,113,69.867900,113,63L112,63C112,69.634500,110.002000,76.076300,106.320000,81.509900Z" fill="rgb(0,0,0)" fill-rule="evenodd" id="eWu1Rx5Folh2" stroke="none" stroke-width="1" transform="matrix(1 0 0 1 -28.99995422999994 -13.00001049000008)"/><circle fill="none" id="eWu1Rx5Folh3" opacity="0" r="3" stroke="rgb(0,0,0)" stroke-width="1" transform="matrix(1 0 0 1 75.50004576999996 71.49998950999998)"/><path clip-rule="evenodd" d="M72.583200,40.913200C78.081100,39.315900,83.977200,39.826600,89.118600,42.345400C89.942800,42.749100,90.738100,43.199900,91.501300,43.694000C91.675900,43.404800,91.891200,43.142800,92.139200,42.916100C91.314100,42.376300,90.452600,41.885300,89.558500,41.447300C84.193600,38.819100,78.041200,38.286200,72.304200,39.953000C66.567200,41.619700,61.658100,45.366200,58.536600,50.460000C55.415100,55.553900,54.305700,61.628800,55.425100,67.497200C56.544600,73.365500,59.812400,78.605400,64.589900,82.192400C69.367400,85.779500,75.310900,87.455700,81.258600,86.893500C87.206300,86.331300,92.730400,83.571000,96.751100,79.152300C100.772000,74.733600,103,68.974200,103,63L102,63C102,68.725300,99.864700,74.244700,96.011500,78.479300C92.158300,82.713900,86.864300,85.359100,81.164500,85.897900C75.464600,86.436700,69.768700,84.830300,65.190300,81.392700C60.611900,77.955200,57.480200,72.933600,56.407400,67.309800C55.334600,61.685900,56.397800,55.864100,59.389300,50.982500C62.380700,46.100900,67.085300,42.510500,72.583200,40.913200ZM97.350300,47.531700C97.154400,47.806100,96.919800,48.050900,96.654600,48.258400C98.211300,50.122600,99.475700,52.237000,100.385000,54.533100L101.315000,54.165000C100.352000,51.733700,99.007700,49.497900,97.350300,47.531700Z" fill="rgb(0,0,0)" fill-rule="evenodd" id="eWu1Rx5Folh4" stroke="none" stroke-width="1" transform="matrix(1 0 0 1 -28.99995422999994 -13.00001049000007)"/><circle fill="none" id="eWu1Rx5Folh5" opacity="0" r="3" stroke="rgb(0,0,0)" stroke-width="1" transform="matrix(1 0 0 1 65.50004576999996 32.49998950999993)"/><path clip-rule="evenodd" d="M75.094200,49.555900C78.440700,48.583600,82.029600,48.894500,85.159200,50.427600C88.288800,51.960800,90.734000,54.606100,92.016900,57.846300L92.946700,57.478100C91.572200,54.006500,88.952200,51.172300,85.599100,49.529600C82.246000,47.886900,78.400800,47.553900,74.815200,48.595600C71.229600,49.637300,68.161400,51.978900,66.210400,55.162500C64.259500,58.346200,63.566100,62.143000,64.265700,65.810700C64.965400,69.478500,67.007800,72.753400,69.993700,74.995300C71.787200,76.341800,73.843600,77.257600,76.005500,77.698100C76.001900,77.632500,76,77.566500,76,77.500000C76,77.222900,76.032200,76.953400,76.093000,76.694900C74.116300,76.275200,72.237000,75.429100,70.594200,74.195600C67.807300,72.103200,65.901000,69.046600,65.248000,65.623400C64.595000,62.200100,65.242200,58.656400,67.063100,55.685000C68.884000,52.713600,71.747600,50.528200,75.094200,49.555900ZM82.843600,76.462100C82.941200,76.777000,82.995600,77.111000,82.999700,77.457000C85.711900,76.706600,88.176800,75.202700,90.094500,73.095200C92.607400,70.333500,94,66.733900,94,63L93,63C93,66.485000,91.700300,69.844600,89.354900,72.422200C87.591100,74.360600,85.331400,75.751800,82.843600,76.462100Z" fill="rgb(0,0,0)" fill-rule="evenodd" id="eWu1Rx5Folh6" stroke="none" stroke-width="1" transform="matrix(1 0 0 1 -28.99995422999994 -13.00001049000008)"/><circle fill="none" id="eWu1Rx5Folh7" opacity="0" r="3" stroke="rgb(0,0,0)" stroke-width="1" transform="matrix(1 0 0 1 50.50004577000006 64.49998950999998)"/><path d="M86.500000,63.500000C86.500000,65.242500,85.850100,66.922300,84.677400,68.211100C83.504700,69.499900,81.893500,70.305000,80.158800,70.468900C78.424000,70.632900,76.690500,70.144000,75.297100,69.097800C73.903600,68.051600,72.950500,66.523300,72.624000,64.811700C72.297500,63.100100,72.621100,61.328200,73.531500,59.842500C74.442000,58.356800,75.873800,57.264100,77.547100,56.777900C79.220300,56.291800,81.014800,56.447200,82.579600,57.213800C84.144400,57.980400,85.367000,59.303000,86.008400,60.923100" fill="none" id="eWu1Rx5Folh8" stroke="rgb(0,0,0)" stroke-width="1" transform="matrix(1 0 0 1 -28.99995422999994 -13.00001049000007)"/><g id="eWu1Rx5Folh9_tr" transform="translate(51.000046,50.000022) rotate(0)"><path d="M80,63L113,49.500000" fill="none" id="eWu1Rx5Folh9" stroke="rgb(0,0,0)" stroke-linecap="round" stroke-linejoin="round" stroke-width="1" transform="translate(-80,-63.000032)"/></g></svg>
